<?xml version="1.0" encoding="UTF-8" standalone="no"?><svg xmlns="http://www.w3.org/2000/svg" xmlns:xlink="http://www.w3.org/1999/xlink" xmlns:shaper="http://www.shapertools.com/namespaces/shaper" shaper:fusionaddin="version:1.6.10" width="7.7cm" height="7.7cm" version="1.1" x="0cm" y="0cm" viewBox="-3.85 -3.85 7.7 7.7" enable-background="new -3.85 -3.85 7.7 7.7" xml:space="preserve">
  <g transform="rotate(90) scale(1, -1)">
    <path d="M-1.925,-3.25 L-1.925,-3.65 A0.2,0.2 180 0,1 -1.725,-3.85 L1.125,-3.85 A0.8,0.8 270 0,1 1.925,-3.05 L1.925,-1.85 A0.8,0.8 0 0,1 1.125,-1.05 L-1.125,-1.05 A0.2,0.2 270 0,0 -1.325,-0.85 L-1.325,-0.6 A0.2,0.2 180 0,0 -1.125,-0.4 L1.725,-0.4 A0.2,0.2 270 0,1 1.925,-0.2 L1.925,1.65 A0.2,0.2 0 0,1 1.725,1.85 L-0.625,1.85 A0.5,0.5 270 0,0 -1.125,2.35 L-1.125,2.55 A0.5,0.5 180 0,0 -0.625,3.05 L1.725,3.05 A0.2,0.2 270 0,1 1.925,3.25 L1.925,3.65 A0.2,0.2 0 0,1 1.725,3.85 L-1.125,3.85 A0.8,0.8 90 0,1 -1.925,3.05 L-1.925,1.85 A0.8,0.8 180 0,1 -1.125,1.05 L1.125,1.05 A0.2,0.2 90 0,0 1.325,0.85 L1.325,0.6 A0.2,0.2 0 0,0 1.125,0.4 L-1.725,0.4 A0.2,0.2 90 0,1 -1.925,0.2 L-1.925,-1.65 A0.2,0.2 180 0,1 -1.725,-1.85 L0.625,-1.85 A0.5,0.5 90 0,0 1.125,-2.35 L1.125,-2.55 A0.5,0.5 0 0,0 0.625,-3.05 L-1.725,-3.05 A0.2,0.2 90 0,1 -1.925,-3.25z" fill="rgb(0,0,0)" shaper:cutDepth="0.006" stroke-linecap="round" stroke-linejoin="round" />
  </g>
</svg>